<?xml version="1.0" standalone="no"?>
<!DOCTYPE svg PUBLIC "-//W3C//DTD SVG 20010904//EN"
 "http://www.w3.org/TR/2001/REC-SVG-20010904/DTD/svg10.dtd">
<svg version="1.0" xmlns="http://www.w3.org/2000/svg"
 width="1280.000000pt" height="1280.000000pt" viewBox="0 0 1280.000000 1280.000000"
 preserveAspectRatio="xMidYMid meet">

<g transform="translate(0.000000,1280.000000) scale(0.100000,-0.100000)"
fill="#000000" stroke="none">
<path d="M851 11983 c-9 -7 -26 -13 -38 -13 l-23 0 0 -5530 0 -5530 23 0 c13
0 28 -5 33 -10 12 -12 11104 -14 11116 -2 12 12 10 11074 -1 11085 -15 15
-1605 11 -1632 -4 -19 -10 -20 -16 -13 -52 5 -23 9 -2202 9 -4867 l0 -4825
-28 -95 c-46 -153 -57 -159 -328 -176 -106 -7 -301 8 -365 27 -41 13 -67 43
-89 104 -17 45 -19 108 -26 650 -4 330 -11 611 -15 625 -4 14 -12 28 -17 32
-24 15 -37 0 -152 -176 -102 -155 -228 -299 -414 -470 -83 -76 -263 -215 -354
-273 -28 -18 -65 -46 -81 -62 -17 -16 -49 -37 -71 -46 -22 -9 -57 -29 -77 -46
-21 -16 -57 -38 -82 -48 -24 -11 -63 -33 -86 -50 -23 -16 -65 -38 -93 -47 -29
-9 -74 -32 -100 -50 -27 -19 -68 -38 -90 -44 -23 -6 -82 -30 -132 -54 -54 -27
-111 -48 -143 -51 -31 -4 -82 -22 -125 -45 -64 -34 -89 -41 -193 -54 -82 -10
-136 -22 -174 -40 -71 -33 -127 -44 -280 -55 -174 -12 -840 -13 -1045 -2 -192
11 -259 23 -329 58 -35 18 -82 29 -167 39 -100 11 -129 19 -190 49 -39 20
-105 43 -146 51 -49 9 -95 26 -132 48 -31 19 -84 41 -117 50 -34 8 -89 33
-123 54 -33 22 -76 43 -94 46 -18 3 -64 26 -102 51 -37 25 -74 45 -80 45 -7 0
-41 19 -76 43 -35 23 -77 48 -92 55 -16 7 -52 30 -80 53 -54 42 -113 83 -207
145 -30 20 -73 53 -96 73 -22 20 -66 59 -98 86 -93 80 -339 322 -429 422 -155
173 -167 188 -268 339 -26 38 -58 80 -72 92 -14 13 -31 38 -38 55 -7 18 -27
53 -46 79 -18 25 -42 67 -53 92 -11 25 -32 58 -45 74 -14 17 -38 62 -54 102
-17 40 -39 82 -49 94 -27 29 -37 52 -52 114 -7 29 -23 66 -36 82 -31 36 -52
87 -64 153 -6 29 -28 88 -50 132 -30 61 -42 100 -49 163 -7 57 -22 109 -45
160 -42 95 -44 105 -56 272 -5 80 -18 168 -31 215 -38 141 -40 156 -46 435 -6
313 4 459 42 595 16 58 29 138 35 225 12 168 14 178 56 272 23 52 38 103 44
160 8 65 19 100 50 160 23 44 44 104 51 142 7 45 24 87 51 133 23 36 47 92 55
122 8 30 28 72 44 92 16 21 39 64 50 96 11 32 33 75 50 96 16 20 37 54 46 75
8 20 32 62 53 92 20 30 49 75 64 100 15 25 41 64 59 87 18 23 55 74 82 114 28
40 66 91 85 113 20 23 48 58 63 78 34 46 422 436 497 499 30 26 77 66 104 89
27 23 68 53 90 67 23 14 56 39 74 54 18 16 49 38 70 48 20 11 53 34 72 51 19
18 55 40 79 51 24 11 60 32 80 48 20 15 58 38 85 50 28 12 65 33 83 47 18 14
62 36 97 48 35 13 84 37 109 55 25 17 74 38 109 47 35 8 88 31 118 49 38 23
82 38 138 49 55 10 105 28 146 51 55 31 77 36 172 46 83 8 126 18 179 41 128
56 199 62 800 62 602 0 657 -4 788 -58 60 -25 111 -38 180 -45 106 -12 129
-19 184 -55 23 -15 71 -31 122 -40 62 -11 101 -26 150 -55 36 -22 84 -43 106
-47 47 -8 89 -28 127 -60 15 -12 52 -29 81 -38 29 -8 73 -31 98 -50 25 -20 65
-42 89 -51 24 -8 62 -29 84 -46 23 -16 64 -44 92 -62 148 -92 256 -168 349
-246 134 -112 332 -293 365 -333 19 -23 53 -63 76 -88 22 -25 55 -66 71 -91
17 -25 38 -51 47 -58 13 -11 109 -152 159 -233 22 -36 65 -64 78 -51 6 6 9
676 9 1834 1 1767 0 1824 -18 1837 -27 18 -8597 23 -8621 5z"/>
<path d="M6105 9225 c-60 -7 -155 -22 -210 -33 -55 -12 -159 -25 -231 -31
-119 -9 -138 -13 -206 -45 -48 -24 -105 -41 -160 -50 -79 -13 -159 -43 -172
-65 -6 -10 -40 -22 -112 -40 -23 -6 -61 -26 -85 -45 -24 -18 -70 -41 -101 -50
-32 -9 -73 -30 -91 -45 -18 -16 -57 -40 -87 -54 -30 -13 -68 -35 -85 -49 -16
-14 -45 -33 -62 -42 -18 -9 -55 -35 -82 -59 -27 -23 -91 -73 -142 -112 -154
-117 -407 -377 -500 -515 -14 -22 -42 -57 -62 -79 -19 -21 -41 -50 -48 -63 -7
-12 -27 -41 -44 -63 -18 -22 -42 -62 -54 -90 -12 -27 -33 -61 -46 -75 -13 -14
-36 -52 -50 -84 -15 -33 -39 -78 -55 -100 -16 -23 -36 -67 -45 -98 -9 -31 -29
-73 -45 -93 -30 -37 -50 -91 -50 -131 0 -12 -20 -60 -44 -108 -32 -61 -46
-104 -51 -148 -11 -98 -23 -146 -57 -215 -34 -71 -31 -46 -59 -536 -10 -173
-10 -261 0 -435 29 -510 25 -471 60 -537 17 -33 36 -89 42 -125 20 -126 38
-189 65 -229 14 -22 33 -71 40 -108 9 -41 29 -91 50 -126 20 -33 44 -84 54
-115 9 -32 36 -86 58 -121 23 -35 42 -70 42 -77 0 -7 16 -33 35 -59 20 -25 46
-70 59 -98 13 -29 33 -61 45 -71 12 -11 31 -36 43 -55 12 -20 30 -46 41 -58
11 -13 41 -52 66 -87 136 -190 379 -432 564 -563 18 -13 52 -39 77 -59 77 -61
173 -123 235 -153 33 -16 71 -41 84 -55 13 -14 53 -35 88 -47 36 -12 80 -34
98 -51 20 -17 61 -36 100 -47 37 -11 79 -28 94 -38 47 -35 70 -44 154 -58 53
-10 106 -27 150 -50 64 -34 77 -37 231 -50 90 -8 186 -19 213 -26 109 -25 301
-49 387 -49 88 0 298 27 401 50 28 6 121 17 208 25 147 12 163 16 233 49 42
20 106 41 142 46 90 14 131 28 169 56 17 13 60 31 95 40 35 9 93 34 129 55 37
22 83 44 102 50 20 5 57 24 84 43 26 18 71 43 98 55 28 12 64 35 80 50 17 16
53 41 80 55 62 33 168 107 215 150 19 18 47 41 61 52 59 44 227 205 311 299
49 55 104 116 122 135 18 20 51 61 74 92 23 31 46 59 52 63 6 4 23 32 39 64
16 31 37 63 46 71 9 8 28 36 42 64 14 27 40 71 58 98 19 26 39 65 46 85 6 20
29 63 49 94 21 32 42 78 49 103 6 24 27 72 47 105 23 38 42 90 54 144 11 48
29 100 44 122 32 47 41 82 56 215 8 72 23 138 48 210 l37 105 0 475 0 475 -27
75 c-35 98 -55 185 -63 288 -6 69 -14 95 -45 155 -24 46 -43 101 -53 154 -11
56 -24 94 -42 117 -14 18 -36 66 -50 107 -14 40 -37 90 -51 110 -14 20 -34 61
-45 90 -12 30 -32 69 -45 87 -14 18 -40 63 -59 100 -18 37 -43 76 -55 87 -12
11 -31 38 -42 60 -53 105 -172 249 -388 468 -170 172 -253 247 -346 314 -25
18 -62 45 -82 61 -20 16 -51 34 -68 41 -16 6 -48 28 -70 47 -21 19 -59 44 -84
55 -25 11 -60 32 -79 46 -18 14 -56 35 -85 45 -28 11 -78 37 -111 58 -33 21
-83 43 -112 50 -28 6 -75 27 -105 46 -58 38 -62 39 -158 54 -40 6 -92 24 -134
46 -64 33 -77 36 -200 45 -72 5 -178 18 -236 28 -276 52 -383 58 -575 36z"/>
<path d="M12776 6121 c-67 -333 -65 -828 4 -1063 l18 -63 1 608 c1 334 0 607
-2 607 -1 0 -11 -40 -21 -89z"/>
</g>
</svg>
